 MESH "Malha" dimension 2 ElemType Linear Nnode 2
 Coordinates
           1      7.3150000000000004           7.3150000000000004     
           2      14.630000000000001           7.3150000000000004     
           3      0.0000000000000000           0.0000000000000000     
           4      7.3150000000000004           0.0000000000000000     
           5      14.630000000000001           0.0000000000000000     
           6      21.960000000000001           0.0000000000000000     
 end coordinates
 Elements
         1         1         2         1
         2         1         3         1
         3         4         1         2
         4         1         5         2
         5         2         4         2
         6         2         5         2
         7         2         6         1
         8         3         4         1
         9         4         5         1
        10         5         6         1
 end elements
